<svg width="120" height="40" viewBox="0 0 120 40" xmlns="http://www.w3.org/2000/svg">
  <!-- F -->
  <g fill="currentColor">
    <!-- Vertical line left -->
    <rect x="2" y="4" width="3" height="28" rx="1"/>
    <!-- Top horizontal -->
    <rect x="2" y="4" width="14" height="3" rx="1"/>
    <!-- Middle horizontal -->
    <rect x="2" y="16" width="10" height="3" rx="1"/>
  </g>
  
  <!-- E (first) -->
  <g fill="currentColor">
    <!-- Vertical line left -->
    <rect x="20" y="4" width="3" height="28" rx="1"/>
    <!-- Top horizontal -->
    <rect x="20" y="4" width="14" height="3" rx="1"/>
    <!-- Middle horizontal -->
    <rect x="20" y="16" width="12" height="3" rx="1"/>
    <!-- Bottom horizontal -->
    <rect x="20" y="29" width="14" height="3" rx="1"/>
  </g>
  
  <!-- E (second) -->
  <g fill="currentColor">
    <!-- Vertical line left -->
    <rect x="38" y="4" width="3" height="28" rx="1"/>
    <!-- Top horizontal -->
    <rect x="38" y="4" width="14" height="3" rx="1"/>
    <!-- Middle horizontal -->
    <rect x="38" y="16" width="12" height="3" rx="1"/>
    <!-- Bottom horizontal -->
    <rect x="38" y="29" width="14" height="3" rx="1"/>
  </g>
  
  <!-- P -->
  <g fill="currentColor">
    <!-- Vertical line left -->
    <rect x="56" y="4" width="3" height="28" rx="1"/>
    <!-- Top horizontal -->
    <rect x="56" y="4" width="14" height="3" rx="1"/>
    <!-- Middle horizontal -->
    <rect x="56" y="16" width="12" height="3" rx="1"/>
    <!-- Right curve (simplified as angled segments) -->
    <rect x="67" y="4" width="3" height="12" rx="1"/>
    <rect x="67" y="16" width="3" height="3" rx="1"/>
  </g>
</svg>

