<svg width="256" height="256" viewBox="0 0 256 256" xmlns="http://www.w3.org/2000/svg">
  <defs>
    <linearGradient id="g" x1="0%" y1="0%" x2="100%" y2="100%">
      <stop offset="0%" stop-color="#7C3AED"/>
      <stop offset="100%" stop-color="#8B5CF6"/>
    </linearGradient>
    <filter id="softGlow" x="-50%" y="-50%" width="200%" height="200%">
      <feGaussianBlur in="SourceGraphic" stdDeviation="6" result="blur"/>
      <feMerge>
        <feMergeNode in="blur"/>
        <feMergeNode in="SourceGraphic"/>
      </feMerge>
    </filter>
  </defs>
  <rect rx="56" ry="56" width="256" height="256" fill="url(#g)"/>
  <g filter="url(#softGlow)">
    <path d="M86 64h40c34 0 58 24 58 56s-24 56-58 56H110v16c0 8-6 14-14 14H86c-8 0-14-6-14-14V78c0-8 6-14 14-14zm24 32v48h16c18 0 30-12 30-24s-12-24-30-24h-16z" fill="#fff"/>
    <polygon points="128,108 168,128 128,148" fill="#fff"/>
  </g>
</svg>
