<svg width="192" height="192" viewBox="0 0 192 192" fill="none" xmlns="http://www.w3.org/2000/svg">
  <rect width="192" height="192" rx="32" fill="#6366f1"/>
  <path d="M96 48C87.1634 48 80 55.1634 80 64V80C80 88.8366 87.1634 96 96 96C104.837 96 112 88.8366 112 80V64C112 55.1634 104.837 48 96 48Z" fill="white"/>
  <path d="M64 80C64 71.1634 71.1634 64 80 64V80C80 88.8366 87.1634 96 96 96C104.837 96 112 88.8366 112 80V64C120.837 64 128 71.1634 128 80V112C128 129.673 113.673 144 96 144C78.3269 144 64 129.673 64 112V80Z" fill="white"/>
  <circle cx="96" cy="96" r="8" fill="#6366f1"/>
</svg>