<?xml version="1.0" encoding="UTF-8"?>
<svg version="1.1" xmlns="http://www.w3.org/2000/svg" width="1080" height="1920">
<path d="M0 0 C356.4 0 712.8 0 1080 0 C1080 633.6 1080 1267.2 1080 1920 C723.6 1920 367.2 1920 0 1920 C0 1286.4 0 652.8 0 0 Z " fill="#FE613F" transform="translate(0,0)"/>
<path d="M0 0 C1.18078125 -0.01611328 2.3615625 -0.03222656 3.578125 -0.04882812 C15.01204708 -0.05512434 24.86344125 2.37160246 35.1875 7.1875 C35.95924561 7.54046143 36.73099121 7.89342285 37.52612305 8.25708008 C45.37266517 11.88219747 51.88990094 15.11147684 58 21.3125 C59.89420001 22.96021288 61.79012406 24.60594528 63.6875 26.25 C68.22379689 30.32098119 72.09897298 34.63496051 75.6875 39.5625 C76.10926514 40.12831787 76.53103027 40.69413574 76.96557617 41.27709961 C79.72791472 45.23028997 80.64213652 48.53289959 81 53.3125 C81.66 53.3125 82.32 53.3125 83 53.3125 C83.79780561 55.31005909 84.58792425 57.31068885 85.375 59.3125 C86.03628906 60.983125 86.03628906 60.983125 86.7109375 62.6875 C89.06503358 69.30750351 90.25338497 75.03407357 90.265625 82.06640625 C90.26753845 82.77095444 90.2694519 83.47550262 90.27142334 84.20140076 C90.27277326 85.67780926 90.2691611 87.15423012 90.26074219 88.63061523 C90.25000882 90.87315814 90.26068616 93.11490312 90.2734375 95.35742188 C90.27211601 96.80208508 90.26955382 98.24674779 90.265625 99.69140625 C90.26336914 100.9863501 90.26111328 102.28129395 90.25878906 103.61547852 C89.99089846 107.44252326 89.16536355 110.66752786 88 114.3125 C87.27619772 117.38581752 86.57095713 120.46235371 85.87890625 123.54296875 C84.9777202 126.38270613 83.84555262 128.01288284 82 130.3125 C81.27648573 132.29264432 80.59734611 134.29071315 80 136.3125 C79.34 136.3125 78.68 136.3125 78 136.3125 C77.76539063 137.00730469 77.53078125 137.70210937 77.2890625 138.41796875 C75.75454879 141.86364953 73.68932035 144.6788307 71.375 147.625 C70.92406982 148.19968018 70.47313965 148.77436035 70.00854492 149.36645508 C56.03973151 166.93438234 36.26913081 178.70582629 14 182.3125 C9.45231934 182.63548366 4.93714592 182.70610565 0.37890625 182.64868164 C-1.6306141 182.62493365 -3.63881043 182.62817108 -5.6484375 182.63476562 C-15.23522014 182.58266355 -24.84271727 182.33238247 -33.5625 177.9375 C-36.96850265 176.2658127 -40.28623444 174.84831104 -43.875 173.625 C-62.59469788 166.28042954 -78.00576453 146.3226433 -86.09179688 128.44238281 C-95.58804088 106.17215897 -96.52588315 81.05833826 -88 58.3125 C-87.34 58.3125 -86.68 58.3125 -86 58.3125 C-85.855625 57.11625 -85.71125 55.92 -85.5625 54.6875 C-81.66601705 37.45097471 -64.9093812 22.8622244 -51 13.3125 C-45.55903676 9.95205925 -39.95240143 7.58592115 -34 5.3125 C-33.34128906 5.03277344 -32.68257812 4.75304687 -32.00390625 4.46484375 C-21.81336586 0.24879897 -10.88295846 -0.0297024 0 0 Z " fill="#FEFCFB" transform="translate(763,904.6875)"/>
<path d="M0 0 C0.9384375 0.29390625 1.876875 0.5878125 2.84375 0.890625 C15.2980207 5.28239414 26.81594002 15.30485128 33 27 C39.31873839 41.25616593 40.63060633 59.39940777 35.1875 74.2109375 C34.21293371 76.52553244 33.11849952 78.7517409 32 81 C31.63648438 81.86496094 31.27296875 82.72992187 30.8984375 83.62109375 C25.53211337 95.2261812 13.57198624 103.43475797 1.95703125 108.265625 C-5.28325652 110.53214987 -11.81206301 111.36102949 -19.375 111.375 C-20.20668701 111.37661133 -21.03837402 111.37822266 -21.89526367 111.37988281 C-36.78594007 111.1117702 -49.4512895 104.31503653 -60 94 C-70.05514617 82.04984551 -75.35745791 69.82847896 -75.375 54.3125 C-75.39949219 53.19166016 -75.42398438 52.07082031 -75.44921875 50.91601562 C-75.500832 36.09440958 -69.17060555 23.85049116 -59.1953125 13.09765625 C-43.14583009 -2.23788122 -20.99137768 -7.71369903 0 0 Z " fill="#FE7546" transform="translate(780,942)"/>
<path d="M0 0 C9.26676078 7.76150015 16.47604269 18.06536454 18.55859375 30.12109375 C18.79877484 34.01457471 18.78958002 37.90840196 18.80859375 41.80859375 C18.82921875 42.84693359 18.84984375 43.88527344 18.87109375 44.95507812 C18.92197375 55.09927789 16.67086997 63.22162033 11.30859375 71.80859375 C10.91019287 72.45505859 10.51179199 73.10152344 10.10131836 73.76757812 C7.09214543 78.5282332 3.97613669 82.57766037 -0.44140625 86.12109375 C-1.10914063 86.69988281 -1.776875 87.27867188 -2.46484375 87.875 C-14.77171945 97.59869189 -30.13219434 100.65048555 -45.44140625 99.12109375 C-60.07900178 96.88737975 -72.27420166 89.8739424 -81.25390625 78.12109375 C-82.6684804 76.13430471 -84.06686863 74.13578902 -85.44140625 72.12109375 C-85.87453125 71.50363281 -86.30765625 70.88617187 -86.75390625 70.25 C-94.52675235 58.07456528 -95.3779091 42.46820662 -92.78125 28.59375 C-88.02237206 12.91623437 -77.99555623 0.48000802 -63.66772461 -7.31542969 C-42.25516674 -18.33401707 -18.60801465 -14.32072807 0 0 Z " fill="#FEF9F9" transform="translate(242.44140625,940.87890625)"/>
<path d="M0 0 C0.83273437 -0.01611328 1.66546875 -0.03222656 2.5234375 -0.04882812 C7.39146722 -0.05270394 10.33273686 0.34966256 14.375 3.3125 C16.35951771 4.02393088 18.35702112 4.70241336 20.375 5.3125 C20.375 5.9725 20.375 6.6325 20.375 7.3125 C21.07625 7.539375 21.7775 7.76625 22.5 8 C30.44819035 11.62852168 34.1921284 17.90797224 38.375 25.3125 C38.74109375 25.93769531 39.1071875 26.56289063 39.484375 27.20703125 C43.52212594 35.64440704 42.43498047 48.01216636 39.8125 56.75 C37.53876765 62.59445286 34.32445243 67.46851348 30.375 72.3125 C29.62476563 73.26769531 29.62476563 73.26769531 28.859375 74.2421875 C22.19663727 81.81348037 11.44865785 86.72623216 1.5 87.55078125 C-8.85436714 87.79669747 -17.77306903 85.7564748 -26.625 80.3125 C-26.60928955 81.41762939 -26.5935791 82.52275879 -26.57739258 83.66137695 C-26.52311443 87.75944741 -26.48865776 91.85748607 -26.46020508 95.95581055 C-26.44511359 97.72995343 -26.42463809 99.50405898 -26.39868164 101.27807617 C-26.36231359 103.82740487 -26.34527762 106.37624059 -26.33203125 108.92578125 C-26.31654739 109.71962723 -26.30106354 110.51347321 -26.28511047 111.33137512 C-26.28344287 116.78135467 -26.28344287 116.78135467 -27.91064453 119.31176758 C-30.93321182 121.07615142 -34.29008433 120.74157028 -37.6875 120.6875 C-38.42033203 120.69910156 -39.15316406 120.71070313 -39.90820312 120.72265625 C-42.03515625 120.7109375 -42.03515625 120.7109375 -45.625 120.3125 C-47.76079313 117.10881031 -47.87463236 116.30740897 -47.87223816 112.63058472 C-47.87643265 111.66869232 -47.88062714 110.70679993 -47.88494873 109.71575928 C-47.87651947 108.1353183 -47.87651947 108.1353183 -47.86791992 106.52294922 C-47.86981827 105.41221039 -47.87171661 104.30147156 -47.87367249 103.15707397 C-47.87738437 99.47704056 -47.86667123 95.79720344 -47.85546875 92.1171875 C-47.85427722 89.56796288 -47.85382373 87.01873782 -47.8540802 84.46951294 C-47.85251469 79.12466479 -47.84446099 73.77988509 -47.83081055 68.43505859 C-47.81506916 62.24850788 -47.809813 56.0620193 -47.8105461 49.87545002 C-47.81115555 43.93006252 -47.80595082 37.984693 -47.79775429 32.03931046 C-47.79456133 29.50583138 -47.79259876 26.97235046 -47.79186058 24.43886948 C-47.78970461 20.906968 -47.78097706 17.37514622 -47.77026367 13.84326172 C-47.77071686 12.78558594 -47.77117004 11.72791016 -47.77163696 10.63818359 C-47.76737198 9.68193085 -47.76310699 8.7256781 -47.75871277 7.740448 C-47.75703692 6.90459105 -47.75536108 6.06873409 -47.75363445 5.20754814 C-47.625 3.3125 -47.625 3.3125 -46.625 2.3125 C-43.63481839 2.18582236 -40.67805892 2.12729162 -37.6875 2.125 C-36.85025391 2.11275391 -36.01300781 2.10050781 -35.15039062 2.08789062 C-33.94866211 2.08499023 -33.94866211 2.08499023 -32.72265625 2.08203125 C-31.98539307 2.07792236 -31.24812988 2.07381348 -30.48852539 2.06958008 C-28.625 2.3125 -28.625 2.3125 -26.625 4.3125 C-26.625 5.3025 -26.625 6.2925 -26.625 7.3125 C-25.98433594 6.97476563 -25.34367187 6.63703125 -24.68359375 6.2890625 C-23.38615234 5.62003906 -23.38615234 5.62003906 -22.0625 4.9375 C-21.21558594 4.49664063 -20.36867188 4.05578125 -19.49609375 3.6015625 C-12.94277909 0.65925796 -7.07182441 -0.02762431 0 0 Z " fill="#FEF9F9" transform="translate(320.625,952.6875)"/>
<path d="M0 0 C1.13292984 -0.00191345 2.26585968 -0.0038269 3.43312073 -0.00579834 C5.80885035 -0.00715099 8.18458759 -0.00351936 10.56030273 0.00488281 C14.20508187 0.01566546 17.84937594 0.0049203 21.49414062 -0.0078125 C23.80859484 -0.00649211 26.12304875 -0.00393222 28.4375 0 C29.52808212 -0.00404846 30.61866425 -0.00809692 31.74229431 -0.01226807 C32.7508699 -0.00596375 33.7594455 0.00034058 34.79858398 0.00683594 C35.68553452 0.00842712 36.57248505 0.01001831 37.48631287 0.01165771 C39.75390625 0.265625 39.75390625 0.265625 42.75390625 2.265625 C43.05720964 5.02509114 43.17225483 7.51058185 43.12890625 10.265625 C43.14050781 11.00296875 43.15210938 11.7403125 43.1640625 12.5 C43.15234375 14.640625 43.15234375 14.640625 42.75390625 18.265625 C39.49843417 20.43593972 38.54820003 20.52186828 34.77929688 20.55273438 C33.76814819 20.56614868 32.75699951 20.57956299 31.71520996 20.59338379 C30.62454224 20.59866089 29.53387451 20.60393799 28.41015625 20.609375 C27.28951782 20.6239978 26.16887939 20.63862061 25.01428223 20.65368652 C20.21129701 20.71605427 15.40818173 20.75558514 10.60498047 20.79736328 C7.10240064 20.8310465 3.60009647 20.87617293 0.09765625 20.921875 C-0.99301147 20.9271521 -2.0836792 20.9324292 -3.20739746 20.93786621 C-4.72412048 20.95798767 -4.72412048 20.95798767 -6.27148438 20.97851562 C-7.16178345 20.98580688 -8.05208252 20.99309814 -8.96936035 21.00061035 C-11.52513098 21.12319911 -11.52513098 21.12319911 -14.24609375 23.265625 C-14.66276042 26.265625 -14.66276042 26.265625 -14.24609375 29.265625 C-11.64244886 31.86926989 -9.82480588 31.50939027 -6.27853394 31.54208374 C-5.46087555 31.54108673 -4.64321716 31.54008972 -3.80078125 31.5390625 C-2.06639999 31.55936812 -0.33202505 31.58021919 1.40234375 31.6015625 C4.13416857 31.62407485 6.86574324 31.64059663 9.59765625 31.64648438 C12.23613741 31.65607188 14.8734928 31.68994176 17.51171875 31.7265625 C18.71998825 31.71899429 18.71998825 31.71899429 19.95266724 31.71127319 C27.96883447 31.84868247 33.77168769 34.91905661 39.62890625 40.328125 C40.36882812 40.99972656 41.10875 41.67132812 41.87109375 42.36328125 C46.94899594 47.49385877 46.89358648 52.47623652 46.87890625 59.390625 C46.88277344 61.21980469 46.88277344 61.21980469 46.88671875 63.0859375 C46.70323731 67.47869915 45.83654137 69.33013237 42.75390625 72.265625 C41.6901672 73.57712099 40.62774549 74.88968618 39.56640625 76.203125 C35.1978719 81.23804595 30.2478818 83.90564967 23.75390625 85.265625 C21.90151301 85.36593345 20.04598007 85.41383188 18.19091797 85.42675781 C16.51931107 85.44116913 16.51931107 85.44116913 14.81393433 85.45587158 C13.61592194 85.46012146 12.41790955 85.46437134 11.18359375 85.46875 C9.95101837 85.47445007 8.71844299 85.48015015 7.44851685 85.48602295 C4.84443011 85.49546514 2.24033147 85.50200383 -0.36376953 85.50585938 C-3.0390367 85.51026835 -5.71398571 85.52425506 -8.38916016 85.546875 C-12.24000918 85.57718546 -16.09045159 85.58788853 -19.94140625 85.59375 C-21.1434671 85.6060968 -22.34552795 85.6184436 -23.58401489 85.63116455 C-24.69211517 85.62816345 -25.80021545 85.62516235 -26.94189453 85.62207031 C-28.40938644 85.62753876 -28.40938644 85.62753876 -29.90652466 85.63311768 C-30.67858246 85.51184509 -31.45064026 85.39057251 -32.24609375 85.265625 C-34.74618318 81.51549085 -34.54211371 78.54050594 -34.49609375 74.203125 C-34.50382812 73.47029297 -34.5115625 72.73746094 -34.51953125 71.98242188 C-34.49946357 66.51899482 -34.49946357 66.51899482 -32.24609375 64.265625 C-29.97572327 64.00061035 -29.97572327 64.00061035 -27.10961914 63.97851562 C-26.03833267 63.96510132 -24.9670462 63.95168701 -23.86329651 63.93786621 C-22.70184616 63.93258911 -21.54039581 63.92731201 -20.34375 63.921875 C-19.15510849 63.9072522 -17.96646698 63.89262939 -16.74180603 63.87756348 C-12.93076951 63.83092101 -9.11978639 63.79679942 -5.30859375 63.765625 C-0.29928267 63.72459353 4.70965406 63.67094791 9.71875 63.609375 C10.87817612 63.6040979 12.03760223 63.5988208 13.23216248 63.59338379 C14.3066011 63.57996948 15.38103973 63.56655518 16.48803711 63.55273438 C17.43464706 63.54544312 18.38125702 63.53815186 19.35655212 63.53063965 C22.01671475 63.4225837 22.01671475 63.4225837 24.75390625 61.265625 C25.48734053 58.20005902 25.48734053 58.20005902 25.75390625 55.265625 C21.83210912 53.95835929 18.08079961 54.11024968 13.9921875 54.08984375 C12.21548308 54.06663502 10.43879035 54.04251726 8.66210938 54.01757812 C5.8688181 53.98256097 3.07595411 53.95317105 0.2824707 53.93969727 C-2.41898177 53.92412624 -5.11919236 53.88385102 -7.8203125 53.83984375 C-8.64456223 53.84175217 -9.46881195 53.84366058 -10.31803894 53.84562683 C-17.60659217 53.69358563 -23.77990989 51.3072202 -28.99609375 46.078125 C-35.66218518 38.83237345 -37.04752535 31.69741629 -36.75390625 21.9296875 C-35.73530148 14.58006231 -32.07854831 9.49709563 -26.49609375 4.765625 C-18.61121942 -0.37590389 -9.10679469 -0.03425128 0 0 Z " fill="#FEF9F7" transform="translate(539.24609375,953.734375)"/>
<path d="M0 0 C0.74362793 0.01047363 1.48725586 0.02094727 2.25341797 0.03173828 C3.46191406 0.04140625 3.46191406 0.04140625 4.69482422 0.05126953 C5.95746094 0.07640625 5.95746094 0.07640625 7.24560547 0.10205078 C8.51984375 0.11558594 8.51984375 0.11558594 9.81982422 0.12939453 C11.9202043 0.15299431 14.02043991 0.18886595 16.12060547 0.22705078 C17.87678686 3.26582617 18.36474855 5.43266239 18.34423828 8.92871094 C18.34474182 9.85712799 18.34524536 10.78554504 18.34576416 11.74209595 C18.33849304 12.74002167 18.33122192 13.73794739 18.32373047 14.76611328 C18.33428449 16.89502562 18.34604189 19.02393228 18.35888672 21.15283203 C18.36917051 24.49702253 18.37067536 27.84041682 18.35058594 31.18457031 C18.33572563 34.42076124 18.3583886 37.65504396 18.38623047 40.89111328 C18.37086243 41.87689362 18.35549438 42.86267395 18.33966064 43.87832642 C18.43917818 51.06827714 20.24910485 56.78105784 25.12060547 62.22705078 C31.01388057 65.16143709 37.9565833 65.2421238 44.31591797 63.69189453 C48.00633098 62.23010756 50.56847748 60.21920083 53.12060547 57.22705078 C53.80687012 56.5924292 54.49313477 55.95780762 55.20019531 55.30395508 C58.10793114 50.64514569 57.68527239 46.25896262 57.65966797 40.87158203 C57.67146088 39.77359787 57.68325378 38.67561371 57.69540405 37.5443573 C57.73067759 34.04261035 57.73983824 30.54146096 57.74560547 27.03955078 C57.76192121 23.52710774 57.78388177 20.01493287 57.81723022 16.50260925 C57.8369381 14.3180382 57.84618678 12.13334368 57.84414673 9.94868469 C57.85458511 8.47156258 57.85458511 8.47156258 57.86523438 6.96459961 C57.86712265 5.66151604 57.86712265 5.66151604 57.86904907 4.33210754 C58.12060547 2.22705078 58.12060547 2.22705078 60.12060547 0.22705078 C62.82983348 0.02852976 65.41363726 -0.05134399 68.12060547 -0.02294922 C69.22662109 -0.03455078 69.22662109 -0.03455078 70.35498047 -0.04638672 C75.86728587 -0.02626882 75.86728587 -0.02626882 78.12060547 2.22705078 C78.31896114 4.80610351 78.39337649 7.27776909 78.37939453 9.85791016 C78.38289917 10.64502884 78.38640381 11.43214752 78.39001465 12.24311829 C78.39883789 14.85243474 78.39298079 17.46148143 78.38623047 20.07080078 C78.38757695 21.87919161 78.38951734 23.68758209 78.39202881 25.49597168 C78.39498087 29.28901612 78.39067979 33.08196648 78.38134766 36.875 C78.36995306 41.7444584 78.3765121 46.61369636 78.38849258 51.48314667 C78.39570897 55.21825836 78.39342428 58.95331753 78.388237 62.68843079 C78.38689989 64.48423793 78.38855036 66.2800498 78.39319611 68.07585144 C78.39825773 70.58276052 78.3905564 73.08930926 78.37939453 75.59619141 C78.38344299 76.34326859 78.38749146 77.09034576 78.3916626 77.86006165 C78.34913416 82.99852209 78.34913416 82.99852209 76.12060547 85.22705078 C73.41137746 85.4255718 70.82757368 85.50544555 68.12060547 85.47705078 C67.01458984 85.48865234 67.01458984 85.48865234 65.88623047 85.50048828 C60.37392507 85.48037038 60.37392507 85.48037038 58.12060547 83.22705078 C57.99560547 80.60205078 57.99560547 80.60205078 58.12060547 78.22705078 C57.16798828 78.72076172 56.21537109 79.21447266 55.23388672 79.72314453 C53.96712376 80.37060116 52.70018746 81.01771872 51.43310547 81.66455078 C50.80726563 81.99003906 50.18142578 82.31552734 49.53662109 82.65087891 C40.36008248 87.31121527 31.26815748 87.35495152 21.43310547 84.60205078 C11.14181717 81.10666647 3.78534653 74.64758238 -1.05859375 64.83935547 C-5.02887333 53.9147892 -4.41225191 42.61355314 -4.29101562 31.1394043 C-4.2540953 27.51013599 -4.24999983 23.88187947 -4.25048828 20.25244141 C-4.24067069 17.94839606 -4.22901966 15.64435763 -4.21533203 13.34033203 C-4.21310638 12.25399979 -4.21088074 11.16766754 -4.20858765 10.04841614 C-4.19582794 9.04944809 -4.18306824 8.05048004 -4.16992188 7.02124023 C-4.16229828 6.14111771 -4.15467468 5.26099518 -4.14682007 4.35420227 C-3.78945635 1.51166606 -2.9077756 0.35129011 0 0 Z " fill="#FEFAF9" transform="translate(411.87939453125,953.77294921875)"/>
<path d="M0 0 C0.87978516 0.55880859 0.87978516 0.55880859 1.77734375 1.12890625 C2.80859375 1.72703125 3.83984375 2.32515625 4.90234375 2.94140625 C12.21822721 8.50783932 18.37110471 14.70040831 19.77734375 24.12890625 C19.89444191 26.58524439 19.95237369 29.04481017 19.96484375 31.50390625 C19.97902344 32.76976562 19.99320312 34.035625 20.0078125 35.33984375 C19.76619836 39.312144 19.0062764 42.36924667 17.77734375 46.12890625 C17.11734375 46.12890625 16.45734375 46.12890625 15.77734375 46.12890625 C15.65359375 46.71929688 15.52984375 47.3096875 15.40234375 47.91796875 C13.2794754 55.42761553 7.23361486 59.51164061 0.77734375 63.12890625 C0.17277344 63.47179687 -0.43179688 63.8146875 -1.0546875 64.16796875 C-8.74996128 67.75574345 -19.14656595 67.34120342 -27.16015625 65.00390625 C-36.22565198 61.34021907 -43.02225578 54.40704762 -46.97265625 45.50390625 C-47.38515625 44.39015625 -47.79765625 43.27640625 -48.22265625 42.12890625 C-48.61453125 41.22140625 -49.00640625 40.31390625 -49.41015625 39.37890625 C-51.59125167 30.65452456 -50.45646131 23.00666736 -46.22265625 15.12890625 C-36.56614659 -0.48291485 -17.38195846 -9.57509036 0 0 Z " fill="#FE4539" transform="translate(220.22265625,951.87109375)"/>
<path d="M0 0 C1.27423828 -0.00193359 1.27423828 -0.00193359 2.57421875 -0.00390625 C3.91419922 0.00189453 3.91419922 0.00189453 5.28125 0.0078125 C6.17457031 0.00394531 7.06789063 0.00007812 7.98828125 -0.00390625 C8.83777344 -0.00261719 9.68726563 -0.00132812 10.5625 0 C11.34689453 0.00112793 12.13128906 0.00225586 12.93945312 0.00341797 C14.78125 0.1328125 14.78125 0.1328125 15.78125 1.1328125 C15.88342549 2.60824564 15.91643672 4.08853216 15.92169189 5.56748962 C15.93025711 7.00403648 15.93025711 7.00403648 15.93899536 8.46960449 C15.94011322 9.52885132 15.94123108 10.58809814 15.94238281 11.67944336 C15.94734772 12.78828384 15.95231262 13.89712433 15.95742798 15.03956604 C15.97209209 18.7256023 15.97885821 22.41159555 15.984375 26.09765625 C15.99012238 28.64734398 15.99588015 31.19703168 16.00164795 33.74671936 C16.01082292 38.41418537 16.0171187 43.08163836 16.0201447 47.74911112 C16.02462813 54.62759915 16.04218699 61.50588872 16.0711453 68.38431638 C16.09532766 74.33395964 16.1030871 80.2835532 16.10482025 86.23324776 C16.10785777 88.76870365 16.11592292 91.30415848 16.12900543 93.83958244 C16.14596551 97.37880576 16.14421034 100.91754022 16.13769531 104.45678711 C16.1469101 105.5140097 16.15612488 106.5712323 16.1656189 107.66049194 C16.16004974 108.62100967 16.15448059 109.5815274 16.14874268 110.57115173 C16.15020924 111.40868453 16.1516758 112.24621733 16.1531868 113.10912991 C15.96907808 114.11085279 15.96907808 114.11085279 15.78125 115.1328125 C12.11369001 117.57785249 10.20646863 117.40112402 5.84375 117.3828125 C4.61785156 117.38796875 3.39195312 117.393125 2.12890625 117.3984375 C-1.04338066 117.14672745 -2.51132364 116.61959006 -5.21875 115.1328125 C-5.24207986 100.28633301 -5.2597296 85.43985593 -5.27056217 70.59336185 C-5.27572494 63.70033723 -5.28276728 56.80732397 -5.29418945 49.91430664 C-5.305197 43.26835085 -5.31102622 36.62240381 -5.31362724 29.97643852 C-5.31548201 27.43458304 -5.3191036 24.89272824 -5.32448006 22.35087776 C-5.33168667 18.80429788 -5.3327411 15.2577676 -5.33227539 11.71118164 C-5.33587067 10.64879272 -5.33946594 9.58640381 -5.34317017 8.49182129 C-5.3417955 7.53123306 -5.34042084 6.57064484 -5.33900452 5.58094788 C-5.33992631 4.74119447 -5.3408481 3.90144106 -5.34179783 3.03624058 C-5.10746391 -0.58867312 -3.14735145 0.00452577 0 0 Z " fill="#FEF9F9" transform="translate(378.21875,921.8671875)"/>
<path d="M0 0 C0.66 0.33 1.32 0.66 2 1 C2.4230957 3.21801758 2.4230957 3.21801758 2.67578125 6.14453125 C2.77874512 7.20881348 2.88170898 8.2730957 2.98779297 9.36962891 C3.14852295 11.0738501 3.14852295 11.0738501 3.3125 12.8125 C4.29450173 21.97311795 5.26643175 29.94733212 10 38 C10.41507813 38.71027344 10.83015625 39.42054688 11.2578125 40.15234375 C16.13118217 47.646299 22.72928859 49.09753304 31 51 C35.38196432 51.70853643 39.77458049 52.21441021 44.1875 52.6875 C45.33025391 52.81705078 46.47300781 52.94660156 47.65039062 53.08007812 C50.43283056 53.39441234 53.21588724 53.70091224 56 54 C56 54.33 56 54.66 56 55 C55.28569824 55.06469482 54.57139648 55.12938965 53.83544922 55.19604492 C30.89174321 56.24819407 30.89174321 56.24819407 11.75 67.125 C10.7957406 68.38914776 9.87346975 69.6787388 9 71 C8.34 71.99 7.68 72.98 7 74 C6.24244249 76.39991851 5.58614762 78.74531309 5 81.1875 C4.82629883 81.9105835 4.65259766 82.63366699 4.47363281 83.37866211 C2.17232898 93.75935579 1.65781103 104.41218377 1 115 C0.34 115 -0.32 115 -1 115 C-1.029729 114.1181604 -1.029729 114.1181604 -1.06005859 113.21850586 C-0.46153319 87.82413358 -0.46153319 87.82413358 -10.96484375 66.12890625 C-20.36595284 58.82860366 -30.72765514 57.80749683 -42.23046875 56.46484375 C-45.50789684 56.06068422 -48.74823001 55.57146191 -52 55 C-52 54.67 -52 54.34 -52 54 C-51.29504395 53.89453857 -50.59008789 53.78907715 -49.86376953 53.68041992 C-46.61633632 53.19024634 -43.37071122 52.68894415 -40.125 52.1875 C-39.01640625 52.02185547 -37.9078125 51.85621094 -36.765625 51.68554688 C-24.67582246 49.80096001 -15.52633485 48.06142786 -7.75 38.125 C-3.17111966 29.94842796 -2.20424692 22.22933697 -1.3125 13 C-1.18294922 11.74832031 -1.05339844 10.49664063 -0.91992188 9.20703125 C-0.60373624 6.13885952 -0.29737844 3.07004191 0 0 Z " fill="#FEF8F5" transform="translate(868,838)"/>
<path d="M0 0 C4.90692188 4.41180904 7.85144348 8.83557348 8.52734375 15.484375 C8.54118777 18.66503965 8.43613517 21.78088217 8.16796875 24.94921875 C7.50796875 24.94921875 6.84796875 24.94921875 6.16796875 24.94921875 C6.08546875 25.48546875 6.00296875 26.02171875 5.91796875 26.57421875 C3.75631926 33.41944214 -0.93278348 37.35747488 -7.01953125 40.69921875 C-12.50424718 42.83612106 -17.95228067 42.9286688 -23.51953125 41.03515625 C-30.4338144 37.84553158 -33.88423072 34.37466106 -37.64453125 27.76171875 C-39.9736462 20.2840339 -39.80486178 13.07472859 -36.23046875 6.02734375 C-33.15705322 1.46014525 -29.42761522 -2.45316042 -23.96484375 -3.7109375 C-15.08040032 -4.67471129 -7.61580102 -5.32981833 0 0 Z " fill="#FE513D" transform="translate(332.83203125,978.05078125)"/>
<path d="M0 0 C0.74362793 0.01047363 1.48725586 0.02094727 2.25341797 0.03173828 C3.46191406 0.04140625 3.46191406 0.04140625 4.69482422 0.05126953 C5.95746094 0.07640625 5.95746094 0.07640625 7.24560547 0.10205078 C8.51984375 0.11558594 8.51984375 0.11558594 9.81982422 0.12939453 C11.9202043 0.15299431 14.02043991 0.18886595 16.12060547 0.22705078 C16.12060547 1.21705078 16.12060547 2.20705078 16.12060547 3.22705078 C15.79060547 2.89705078 15.46060547 2.56705078 15.12060547 2.22705078 C12.65078778 2.12684338 10.21509323 2.0882804 7.74560547 2.10205078 C7.05982422 2.09818359 6.37404297 2.09431641 5.66748047 2.09033203 C2.54837909 2.09640032 0.10084912 2.23363623 -2.87939453 3.22705078 C-2.87939453 20.05705078 -2.87939453 36.88705078 -2.87939453 54.22705078 C-3.20939453 54.22705078 -3.53939453 54.22705078 -3.87939453 54.22705078 C-3.92997598 46.85810263 -3.96507786 39.489199 -3.98925781 32.12011719 C-3.99933464 29.61163663 -4.01299632 27.10316786 -4.03027344 24.59472656 C-4.0544479 20.99557591 -4.06586065 17.39658012 -4.07470703 13.79736328 C-4.0850296 12.67024933 -4.09535217 11.54313538 -4.10598755 10.38186646 C-4.10613861 9.34093842 -4.10628967 8.30001038 -4.10644531 7.22753906 C-4.11088654 6.30820587 -4.11532776 5.38887268 -4.11990356 4.44168091 C-3.80548756 1.5465083 -2.97000318 0.35880787 0 0 Z " fill="#FEC5BD" transform="translate(411.87939453125,953.77294921875)"/>
<path d="M0 0 C7.70556379 -0.21595211 15.27778707 0.59209077 22.9375 1.375 C24.2897001 1.50274651 25.64191355 1.63035182 26.99414062 1.7578125 C28.26322266 1.88671875 29.53230469 2.015625 30.83984375 2.1484375 C31.99863037 2.26364746 33.15741699 2.37885742 34.35131836 2.49755859 C35.2253833 2.66336426 36.09944824 2.82916992 37 3 C37.495 3.99 37.495 3.99 38 5 C35.50072231 5.33970765 33.00080405 5.67188032 30.5 6 C29.80390625 6.09539063 29.1078125 6.19078125 28.390625 6.2890625 C23.55299871 6.9161622 18.87818804 7.08789528 14 7 C14 6.67 14 6.34 14 6 C17.465 5.505 17.465 5.505 21 5 C21 4.67 21 4.34 21 4 C14.07 3.01 7.14 2.02 0 1 C0 0.67 0 0.34 0 0 Z " fill="#FEA981" transform="translate(894,888)"/>
<path d="M0 0 C0.33 0 0.66 0 1 0 C1 2.64 1 5.28 1 8 C0.67 8 0.34 8 0 8 C-0.08040527 8.77714355 -0.16081055 9.55428711 -0.24365234 10.35498047 C-0.61169516 13.86267527 -0.99317084 17.3687803 -1.375 20.875 C-1.50132812 22.09832031 -1.62765625 23.32164062 -1.7578125 24.58203125 C-1.88671875 25.74863281 -2.015625 26.91523437 -2.1484375 28.1171875 C-2.26364746 29.19597168 -2.37885742 30.27475586 -2.49755859 31.38623047 C-3 34 -3 34 -5 36 C-4.73833455 32.73606781 -4.46289324 29.47344483 -4.18408203 26.2109375 C-4.04794703 24.57587308 -3.91688163 22.94038478 -3.78857422 21.3046875 C-3.55485676 18.32739502 -3.30919264 15.35124287 -3.0625 12.375 C-2.98789551 11.39063965 -2.91329102 10.4062793 -2.83642578 9.39208984 C-2.75763184 8.46605957 -2.67883789 7.5400293 -2.59765625 6.5859375 C-2.53070557 5.7511084 -2.46375488 4.9162793 -2.39477539 4.05615234 C-2 2 -2 2 0 0 Z " fill="#FE9D73" transform="translate(869,831)"/>
<path d="M0 0 C0.66 0.33 1.32 0.66 2 1 C-3.28 6.28 -8.56 11.56 -14 17 C-14.66 16.67 -15.32 16.34 -16 16 C-10.96679794 10.22494276 -5.96260189 4.82082706 0 0 Z " fill="#FEDBD1" transform="translate(705,923)"/>
<path d="M0 0 C0.66 0 1.32 0 2 0 C0.52278578 3.45201639 -1.43794001 5.64961936 -4.125 8.25 C-4.84945312 8.95640625 -5.57390625 9.6628125 -6.3203125 10.390625 C-6.87460938 10.92171875 -7.42890625 11.4528125 -8 12 C-8 8.24111186 -7.049166 7.58681685 -4.5625 4.875 C-3.92441406 4.17117188 -3.28632813 3.46734375 -2.62890625 2.7421875 C-1.76410115 1.81724008 -0.89538137 0.89538137 0 0 Z " fill="#FE665D" transform="translate(184,955)"/>
<path d="M0 0 C0.66 0.33 1.32 0.66 2 1 C0.56877218 2.48523642 -0.87020889 3.96300462 -2.3125 5.4375 C-3.11300781 6.26121094 -3.91351562 7.08492187 -4.73828125 7.93359375 C-7 10 -7 10 -10 11 C-8.55218207 7.55571735 -6.72305391 5.63869038 -3.875 3.25 C-3.15054688 2.63640625 -2.42609375 2.0228125 -1.6796875 1.390625 C-0.84824219 0.70226562 -0.84824219 0.70226562 0 0 Z " fill="#FE916E" transform="translate(728,949)"/>
<path d="M0 0 C5.94 0 11.88 0 18 0 C18 0.99 18 1.98 18 3 C17.67 2.67 17.34 2.34 17 2 C14.53018231 1.8997926 12.09448776 1.86122962 9.625 1.875 C8.93921875 1.87113281 8.2534375 1.86726562 7.546875 1.86328125 C4.42777362 1.86934954 1.98024365 2.00658545 -1 3 C-0.67 2.01 -0.34 1.02 0 0 Z " fill="#FEDFDB" transform="translate(410,954)"/>
<path d="M0 0 C-1.5830577 4.2742558 -4.50568404 6.26531794 -8 9 C-6.68994234 5.06982701 -4.75047804 0 0 0 Z " fill="#FEDBD4" transform="translate(514,959)"/>
</svg>
